FFmpeg version SVN-r25716, Copyright (c) 2000-2010 the FFmpeg developers  built on Nov 10 2010 12:23:18 with gcc 4.1.2 20080704 (Red Hat 4.1.2-48)  configuration: --enable-libmp3lame --enable-shared --disable-mmx --arch=x86_64  libavutil     50.33. 0 / 50.33. 0  libavcore      0.12. 1 /  0.12. 1  libavcodec    52.94. 4 / 52.94. 4  libavformat   52.84. 0 / 52.84. 0  libavdevice   52. 2. 2 / 52. 2. 2  libavfilter    1.59. 0 /  1.59. 0  libswscale     0.12. 0 /  0.12. 0Seems stream 0 codec frame rate differs from container frame rate: 1200.00 (1200/1) -> 15.00 (15/1)Input #0, mov,mp4,m4a,3gp,3g2,mj2, from '/RAID10/data/converted_video_files/15793.mov':  Metadata:    major_brand     : qt      minor_version   : 537199360    compatible_brands: qt    Duration: 00:00:11.26, start: 0.000000, bitrate: 8522 kb/s    Stream #0.0(eng): Video: h264, yuv420p, 420x420, 8517 kb/s, 15 fps, 15 tbr, 600 tbn, 1200 tbc[buffer @ 0x15b49f0] w:420 h:420 pixfmt:yuv420pOutput #0, flv, to '/RAID10/data/converted_video_files/15793.flv':  Metadata:    encoder         : Lavf52.84.0    Stream #0.0(eng): Video: flv, yuv420p, 420x420, q=2-31, 600 kb/s, 1k tbn, 24 tbcStream mapping:  Stream #0.0 -> #0.0Press [q] to stop encodingframe=   41 fps=  0 q=10.2 size=     334kB time=2.71 bitrate=1009.0kbits/s    frame=   90 fps= 87 q=10.8 size=     522kB time=5.96 bitrate= 717.7kbits/s    frame=  139 fps= 90 q=10.7 size=     729kB time=9.25 bitrate= 645.7kbits/s    frame=  169 fps= 90 q=8.1 Lsize=     870kB time=11.25 bitrate= 633.4kbits/s    video:867kB audio:0kB global headers:0kB muxing overhead 0.328210%